<svg width="2" height="27" viewBox="0 0 2 27" fill="none" xmlns="http://www.w3.org/2000/svg">
<rect width="2" height="27" fill="#D0D0D0"/>
<g id="HOME draft">
<rect width="1440" height="6045" transform="translate(-838 -3921)" fill="#F9F9F9"/>
<rect id="Rectangle 38" x="-838" y="-2377" width="1440" height="2543" fill="#FCFCFC"/>
<g id="Group 50">
<g id="Asset 17 1" clip-path="url(#clip0_28_683)">
<g id="Layer 2">
<g id="Layer 2_2">
<path id="Vector" d="M1.58008 0.0800018C21.8986 0.0800018 38.3701 -16.3914 38.3701 -36.71C38.3701 -57.0286 21.8986 -73.5 1.58008 -73.5C-18.7385 -73.5 -35.21 -57.0286 -35.21 -36.71C-35.21 -16.3914 -18.7385 0.0800018 1.58008 0.0800018Z" stroke="#222222" stroke-width="1.4" stroke-miterlimit="10"/>
<path id="Vector_2" d="M8.32007 30.6795C8.32205 32.0153 7.92758 33.3218 7.18664 34.4333C6.44571 35.5449 5.39158 36.4116 4.15777 36.9237C2.92397 37.4359 1.56598 37.5704 0.255675 37.3102C-1.05463 37.0501 -2.25828 36.407 -3.20288 35.4624C-4.14749 34.5178 -4.79059 33.3142 -5.05072 32.0039C-5.31085 30.6936 -5.17632 29.3355 -4.66419 28.1017C-4.15206 26.8679 -3.28533 25.8138 -2.17377 25.0729C-1.06221 24.3319 0.244203 23.9375 1.58008 23.9395C2.46519 23.9395 3.34163 24.1138 4.15936 24.4525C4.9771 24.7912 5.72008 25.2877 6.34595 25.9136C6.97181 26.5394 7.46829 27.2824 7.80701 28.1002C8.14572 28.9179 8.32007 29.7943 8.32007 30.6795Z" fill="#222222"/>
</g>
</g>
</g>
<path id="Line 58" d="M1 0L0.999999 27" stroke="#222222" stroke-width="1.5" stroke-dasharray="4 1"/>
</g>
</g>
<defs>
<clipPath id="clip0_28_683">
<rect width="1028.58" height="111.93" fill="white" transform="translate(-632 -74)"/>
</clipPath>
</defs>
</svg>
