<svg width="48" height="49" viewBox="0 0 48 49" fill="none" xmlns="http://www.w3.org/2000/svg">
<rect y="0.5" width="48" height="48" rx="2" fill="#E1E1E1"/>
<g clip-path="url(#clip0_98_369)">
<path d="M36.0002 24.5C35.9978 23.8258 35.8431 23.1609 35.5477 22.5548C35.2523 21.9488 34.8238 21.4173 34.2942 21C35.0268 20.4225 35.561 19.6306 35.822 18.7349C36.0831 17.8392 36.0581 16.8843 35.7505 16.0035C35.4428 15.1227 34.868 14.3599 34.106 13.8215C33.3441 13.2831 32.4331 12.9959 31.5002 13H16.5002C15.5672 12.9959 14.6562 13.2831 13.8943 13.8215C13.1323 14.3599 12.5575 15.1227 12.2499 16.0035C11.9422 16.8843 11.9172 17.8392 12.1783 18.7349C12.4393 19.6306 12.9735 20.4225 13.7062 21C13.1747 21.4156 12.7449 21.9468 12.4492 22.5532C12.1536 23.1596 12 23.8254 12 24.5C12 25.1747 12.1536 25.8405 12.4492 26.4469C12.7449 27.0533 13.1747 27.5845 13.7062 28C12.9735 28.5776 12.4393 29.3695 12.1783 30.2652C11.9172 31.1609 11.9422 32.1158 12.2499 32.9966C12.5575 33.8774 13.1323 34.6402 13.8943 35.1786C14.6562 35.717 15.5672 36.0042 16.5002 36H31.5002C32.4331 36.0042 33.3441 35.717 34.106 35.1786C34.868 34.6402 35.4428 33.8774 35.7505 32.9966C36.0581 32.1158 36.0831 31.1609 35.822 30.2652C35.561 29.3695 35.0268 28.5776 34.2942 28C34.8238 27.5828 35.2523 27.0513 35.5477 26.4453C35.8431 25.8392 35.9978 25.1743 36.0002 24.5ZM14.0002 17.5C14.0002 16.837 14.2635 16.2011 14.7324 15.7323C15.2012 15.2634 15.8371 15 16.5002 15H17.0002V16C17.0002 16.2653 17.1055 16.5196 17.2931 16.7072C17.4806 16.8947 17.7349 17 18.0002 17C18.2654 17 18.5197 16.8947 18.7073 16.7072C18.8948 16.5196 19.0002 16.2653 19.0002 16V15H21.0002V16C21.0002 16.2653 21.1055 16.5196 21.2931 16.7072C21.4806 16.8947 21.7349 17 22.0002 17C22.2654 17 22.5197 16.8947 22.7073 16.7072C22.8948 16.5196 23.0002 16.2653 23.0002 16V15H31.5002C32.1632 15 32.7991 15.2634 33.2679 15.7323C33.7368 16.2011 34.0002 16.837 34.0002 17.5C34.0002 18.1631 33.7368 18.799 33.2679 19.2678C32.7991 19.7367 32.1632 20 31.5002 20H16.5002C15.8371 20 15.2012 19.7367 14.7324 19.2678C14.2635 18.799 14.0002 18.1631 14.0002 17.5ZM34.0002 31.5C34.0002 32.1631 33.7368 32.799 33.2679 33.2678C32.7991 33.7367 32.1632 34 31.5002 34H16.5002C15.8371 34 15.2012 33.7367 14.7324 33.2678C14.2635 32.799 14.0002 32.1631 14.0002 31.5C14.0002 30.837 14.2635 30.2011 14.7324 29.7323C15.2012 29.2634 15.8371 29 16.5002 29H17.0002V30C17.0002 30.2653 17.1055 30.5196 17.2931 30.7072C17.4806 30.8947 17.7349 31 18.0002 31C18.2654 31 18.5197 30.8947 18.7073 30.7072C18.8948 30.5196 19.0002 30.2653 19.0002 30V29H21.0002V30C21.0002 30.2653 21.1055 30.5196 21.2931 30.7072C21.4806 30.8947 21.7349 31 22.0002 31C22.2654 31 22.5197 30.8947 22.7073 30.7072C22.8948 30.5196 23.0002 30.2653 23.0002 30V29H31.5002C32.1632 29 32.7991 29.2634 33.2679 29.7323C33.7368 30.2011 34.0002 30.837 34.0002 31.5ZM16.5002 27C15.8371 27 15.2012 26.7367 14.7324 26.2678C14.2635 25.799 14.0002 25.1631 14.0002 24.5C14.0002 23.837 14.2635 23.2011 14.7324 22.7323C15.2012 22.2634 15.8371 22 16.5002 22H17.0002V23C17.0002 23.2653 17.1055 23.5196 17.2931 23.7072C17.4806 23.8947 17.7349 24 18.0002 24C18.2654 24 18.5197 23.8947 18.7073 23.7072C18.8948 23.5196 19.0002 23.2653 19.0002 23V22H21.0002V23C21.0002 23.2653 21.1055 23.5196 21.2931 23.7072C21.4806 23.8947 21.7349 24 22.0002 24C22.2654 24 22.5197 23.8947 22.7073 23.7072C22.8948 23.5196 23.0002 23.2653 23.0002 23V22H31.5002C32.1632 22 32.7991 22.2634 33.2679 22.7323C33.7368 23.2011 34.0002 23.837 34.0002 24.5C34.0002 25.1631 33.7368 25.799 33.2679 26.2678C32.7991 26.7367 32.1632 27 31.5002 27H16.5002Z" fill="#333333"/>
</g>
<defs>
<clipPath id="clip0_98_369">
<rect width="24" height="24" fill="white" transform="translate(12 13)"/>
</clipPath>
</defs>
</svg>
